# xmcd
#
# Track frame offsets:
#	150
#	22548
#	38078
#	59156
#	75170
#	93099
#	105232
#	124811
#	145301
#	167506
#	180964
#
# Disc length: 2658 seconds
#
# Revision: 1
# Processed by: cddbd v1.5.2PL0 Copyright (c) Steve Scherf et al.
# Submitted via: audiograbber 1.83.01
#
DISCID=730a600b
DTITLE=Eric Goulet - Eric Goulet vol.2
DYEAR=2014
DGENRE=Country
TTITLE0=La grande évasion
TTITLE1=Le trou de ma guitare
TTITLE2=Comme un cave
TTITLE3=Me tiendras-tu la main
TTITLE4=Le côté obscur de mon coeur
TTITLE5=Sers-moi à boire
TTITLE6=Lucille
TTITLE7=Jusqu'au bout de la nuit
TTITLE8=La dernière chanson
TTITLE9=Qu'est-ce que ça donne
TTITLE10=Un ami perdu
EXTD=
EXTT0=
EXTT1=
EXTT2=
EXTT3=
EXTT4=
EXTT5=
EXTT6=
EXTT7=
EXTT8=
EXTT9=
EXTT10=
PLAYORDER=
